<svg width="76" height="43" viewBox="0 0 76 43" fill="none"
    xmlns="http://www.w3.org/2000/svg">
    <path d="M47.5 25.0833C48.1443 25.0833 48.6667 24.561 48.6667 23.9167C48.6667 23.2723 48.1443 22.75 47.5 22.75C46.8557 22.75 46.3333 23.2723 46.3333 23.9167C46.3333 24.561 46.8557 25.0833 47.5 25.0833Z" stroke="#716868" stroke-linecap="round" stroke-linejoin="round"/>
    <path d="M34.6667 25.0833C35.311 25.0833 35.8333 24.561 35.8333 23.9167C35.8333 23.2723 35.311 22.75 34.6667 22.75C34.0223 22.75 33.5 23.2723 33.5 23.9167C33.5 24.561 34.0223 25.0833 34.6667 25.0833Z" stroke="#716868" stroke-linecap="round" stroke-linejoin="round"/>
    <path d="M25.3333 0.583252H30L33.1267 16.2049C33.2333 16.742 33.5255 17.2245 33.9521 17.5679C34.3787 17.9113 34.9125 18.0937 35.46 18.0833H46.8C47.3475 18.0937 47.8813 17.9113 48.3079 17.5679C48.7344 17.2245 49.0266 16.742 49.1333 16.2049L51 6.41659H31.1667" stroke="#716868" stroke-linecap="round" stroke-linejoin="round"/>
    <path d="M31.05 39.5992C32.6989 39.5992 33.9235 38.6808 34.1813 37.2574H33.1984C32.9513 38.1544 32.1295 38.7076 31.05 38.7076C29.5568 38.7076 28.6222 37.4884 28.6222 35.5441C28.6222 33.5997 29.5568 32.3751 31.0446 32.3751C32.1134 32.3751 32.9406 33.0035 33.1984 34.0026H34.1813C33.9503 32.5094 32.6774 31.4835 31.0446 31.4835C28.9391 31.4835 27.6286 33.0411 27.6286 35.5441C27.6286 38.0416 28.9445 39.5992 31.05 39.5992ZM37.4684 38.7076C36.797 38.7076 36.2975 38.3639 36.2975 37.7731C36.2975 37.193 36.6842 36.8868 37.5651 36.8278L39.1227 36.7257V37.2574C39.1227 38.0846 38.4191 38.7076 37.4684 38.7076ZM37.2965 39.5187C38.07 39.5187 38.7038 39.1803 39.0797 38.5626H39.1657V39.4166H40.0465V35.4528C40.0465 34.2496 39.257 33.5245 37.8444 33.5245C36.609 33.5245 35.696 34.1368 35.5724 35.066H36.507C36.6359 34.6095 37.1193 34.3463 37.8122 34.3463C38.6769 34.3463 39.1227 34.7384 39.1227 35.4528V35.9791L37.4523 36.0812C36.1042 36.1617 35.3415 36.7579 35.3415 37.7946C35.3415 38.8527 36.174 39.5187 37.2965 39.5187ZM41.7545 39.4166H42.6784V35.8287C42.6784 35.0123 43.3175 34.4215 44.1984 34.4215C44.381 34.4215 44.714 34.4537 44.7892 34.4752V33.5514C44.6711 33.5353 44.4777 33.5245 44.3273 33.5245C43.5592 33.5245 42.8932 33.922 42.7213 34.486H42.6354V33.6266H41.7545V39.4166ZM46.653 32.1281V33.6266H45.7184V34.4H46.653V37.9127C46.653 39.0192 47.131 39.4596 48.3234 39.4596C48.506 39.4596 48.6833 39.4381 48.8659 39.4059V38.6271C48.694 38.6432 48.6027 38.6486 48.4362 38.6486C47.8346 38.6486 47.5768 38.3585 47.5768 37.6764V34.4H48.8659V33.6266H47.5768V32.1281H46.653Z" fill="#716868"/>
</svg>
