<svg width="75" height="45" viewBox="0 0 75 45" fill="none"
    xmlns="http://www.w3.org/2000/svg">
    <path d="M34.5 25V15H40.5V25M28.5 12L37.5 5L46.5 12V23C46.5 23.5304 46.2893 24.0391 45.9142 24.4142C45.5391 24.7893 45.0304 25 44.5 25H30.5C29.9696 25 29.4609 24.7893 29.0858 24.4142C28.7107 24.0391 28.5 23.5304 28.5 23V12Z" stroke="#114BCA" stroke-linecap="round" stroke-linejoin="round"/>
    <path d="M29.4165 41V33.2495H28.4497V36.6011H24.1958V33.2495H23.229V41H24.1958V37.4712H28.4497V41H29.4165ZM33.6543 41.1021C35.3032 41.1021 36.3237 39.9634 36.3237 38.105C36.3237 36.2412 35.3032 35.1079 33.6543 35.1079C32.0054 35.1079 30.9849 36.2412 30.9849 38.105C30.9849 39.9634 32.0054 41.1021 33.6543 41.1021ZM33.6543 40.2695C32.5586 40.2695 31.9409 39.4746 31.9409 38.105C31.9409 36.73 32.5586 35.9404 33.6543 35.9404C34.75 35.9404 35.3677 36.73 35.3677 38.105C35.3677 39.4746 34.75 40.2695 33.6543 40.2695ZM37.7739 41H38.6978V37.4121C38.6978 36.5957 39.2832 35.9404 40.0405 35.9404C40.771 35.9404 41.249 36.3809 41.249 37.0684V41H42.1729V37.2778C42.1729 36.542 42.71 35.9404 43.5156 35.9404C44.332 35.9404 44.7349 36.3594 44.7349 37.2134V41H45.6587V36.9985C45.6587 35.7847 44.998 35.1079 43.8164 35.1079C43.0161 35.1079 42.3555 35.5107 42.0439 36.123H41.958C41.6895 35.5215 41.1416 35.1079 40.3574 35.1079C39.584 35.1079 39.0039 35.4785 38.7407 36.123H38.6548V35.21H37.7739V41ZM49.6548 35.9243C50.5732 35.9243 51.1855 36.6011 51.207 37.627H48.0166C48.0864 36.6011 48.731 35.9243 49.6548 35.9243ZM51.1802 39.5015C50.9385 40.0117 50.4336 40.2856 49.687 40.2856C48.7041 40.2856 48.0649 39.5605 48.0166 38.4165V38.3735H52.1792V38.019C52.1792 36.2197 51.2285 35.1079 49.6655 35.1079C48.0757 35.1079 47.0552 36.2896 47.0552 38.1104C47.0552 39.9419 48.0596 41.1021 49.6655 41.1021C50.9331 41.1021 51.8247 40.4951 52.104 39.5015H51.1802Z" fill="#114BCA"/>
</svg>