<svg width="75" height="45" viewBox="0 0 75 45" fill="none"
    xmlns="http://www.w3.org/2000/svg">
    <path d="M37.5 18.5C39.433 18.5 41 16.933 41 15C41 13.067 39.433 11.5 37.5 11.5C35.567 11.5 34 13.067 34 15C34 16.933 35.567 18.5 37.5 18.5Z" stroke="#716868" stroke-linecap="round" stroke-linejoin="round"/>
    <path d="M46.1334 18.5C45.9781 18.8518 45.9317 19.2422 46.0003 19.6206C46.069 19.9991 46.2494 20.3483 46.5184 20.6233L46.5884 20.6933C46.8053 20.91 46.9774 21.1673 47.0948 21.4506C47.2123 21.7339 47.2727 22.0375 47.2727 22.3441C47.2727 22.6508 47.2123 22.9544 47.0948 23.2377C46.9774 23.5209 46.8053 23.7783 46.5884 23.995C46.3717 24.2119 46.1143 24.384 45.831 24.5014C45.5478 24.6189 45.2442 24.6793 44.9375 24.6793C44.6309 24.6793 44.3273 24.6189 44.044 24.5014C43.7607 24.384 43.5034 24.2119 43.2867 23.995L43.2167 23.925C42.9417 23.656 42.5925 23.4756 42.214 23.407C41.8356 23.3383 41.4452 23.3847 41.0934 23.54C40.7483 23.6879 40.454 23.9334 40.2467 24.2464C40.0394 24.5594 39.9282 24.9262 39.9267 25.3016V25.5C39.9267 26.1188 39.6809 26.7123 39.2433 27.1499C38.8057 27.5875 38.2122 27.8333 37.5934 27.8333C36.9745 27.8333 36.381 27.5875 35.9434 27.1499C35.5059 26.7123 35.26 26.1188 35.26 25.5V25.395C35.251 25.0088 35.126 24.6343 34.9013 24.3201C34.6766 24.0059 34.3625 23.7666 34 23.6333C33.6481 23.478 33.2578 23.4317 32.8793 23.5003C32.5009 23.5689 32.1516 23.7493 31.8767 24.0183L31.8067 24.0883C31.59 24.3052 31.3326 24.4773 31.0494 24.5948C30.7661 24.7122 30.4625 24.7726 30.1559 24.7726C29.8492 24.7726 29.5456 24.7122 29.2623 24.5948C28.9791 24.4773 28.7217 24.3052 28.505 24.0883C28.2881 23.8716 28.116 23.6143 27.9985 23.331C27.8811 23.0477 27.8207 22.7441 27.8207 22.4375C27.8207 22.1308 27.8811 21.8272 27.9985 21.5439C28.116 21.2607 28.2881 21.0033 28.505 20.7866L28.575 20.7166C28.844 20.4417 29.0244 20.0924 29.093 19.714C29.1616 19.3355 29.1153 18.9452 28.96 18.5933C28.8121 18.2482 28.5666 17.9539 28.2536 17.7467C27.9406 17.5394 27.5738 17.4281 27.1984 17.4266H27C26.3812 17.4266 25.7877 17.1808 25.3501 16.7432C24.9125 16.3056 24.6667 15.7121 24.6667 15.0933C24.6667 14.4745 24.9125 13.881 25.3501 13.4434C25.7877 13.0058 26.3812 12.76 27 12.76H27.105C27.4912 12.7509 27.8657 12.6259 28.1799 12.4012C28.494 12.1765 28.7334 11.8625 28.8667 11.5C29.022 11.1481 29.0683 10.7577 28.9997 10.3793C28.9311 10.0008 28.7506 9.65159 28.4817 9.37663L28.4117 9.30663C28.1947 9.08992 28.0226 8.83258 27.9052 8.54932C27.7878 8.26606 27.7274 7.96243 27.7274 7.65579C27.7274 7.34916 27.7878 7.04553 27.9052 6.76227C28.0226 6.479 28.1947 6.22166 28.4117 6.00496C28.6284 5.78801 28.8857 5.61591 29.169 5.49849C29.4523 5.38106 29.7559 5.32062 30.0625 5.32062C30.3692 5.32062 30.6728 5.38106 30.956 5.49849C31.2393 5.61591 31.4967 5.78801 31.7134 6.00496L31.7834 6.07496C32.0583 6.34392 32.4075 6.52434 32.786 6.59296C33.1645 6.66159 33.5548 6.61526 33.9067 6.45996H34C34.3451 6.31207 34.6394 6.06651 34.8467 5.7535C35.054 5.4405 35.1652 5.07371 35.1667 4.69829V4.49996C35.1667 3.88112 35.4125 3.28763 35.8501 2.85004C36.2877 2.41246 36.8812 2.16663 37.5 2.16663C38.1189 2.16663 38.7124 2.41246 39.1499 2.85004C39.5875 3.28763 39.8334 3.88112 39.8334 4.49996V4.60496C39.8349 4.98038 39.9461 5.34716 40.1534 5.66017C40.3607 5.97317 40.655 6.21874 41 6.36663C41.3519 6.52193 41.7422 6.56825 42.1207 6.49963C42.4992 6.43101 42.8484 6.25059 43.1234 5.98163L43.1934 5.91163C43.4101 5.69468 43.6674 5.52258 43.9507 5.40515C44.2339 5.28773 44.5376 5.22729 44.8442 5.22729C45.1508 5.22729 45.4545 5.28773 45.7377 5.40515C46.021 5.52258 46.2783 5.69468 46.495 5.91163C46.712 6.12833 46.8841 6.38567 47.0015 6.66893C47.1189 6.95219 47.1794 7.25582 47.1794 7.56246C47.1794 7.8691 47.1189 8.17272 47.0015 8.45599C46.8841 8.73925 46.712 8.99659 46.495 9.21329L46.425 9.28329C46.1561 9.55825 45.9756 9.90748 45.907 10.2859C45.8384 10.6644 45.8847 11.0547 46.04 11.4066V11.5C46.1879 11.845 46.4335 12.1393 46.7465 12.3466C47.0595 12.5539 47.4263 12.6651 47.8017 12.6666H48C48.6189 12.6666 49.2124 12.9125 49.6499 13.35C50.0875 13.7876 50.3334 14.3811 50.3334 15C50.3334 15.6188 50.0875 16.2123 49.6499 16.6499C49.2124 17.0875 48.6189 17.3333 48 17.3333H47.895C47.5196 17.3348 47.1528 17.446 46.8398 17.6533C46.5268 17.8606 46.2812 18.1549 46.1334 18.5V18.5Z" stroke="#716868" stroke-linecap="round" stroke-linejoin="round"/>
    <path d="M16.6763 38.9751C16.7783 40.3125 17.9116 41.1826 19.5552 41.1826C21.3276 41.1826 22.4502 40.2749 22.4502 38.8516C22.4502 37.7129 21.8057 37.0898 20.1997 36.687L19.3887 36.4722C18.3198 36.1982 17.8955 35.8491 17.8955 35.2422C17.8955 34.458 18.5776 33.9424 19.6089 33.9424C20.5757 33.9424 21.231 34.415 21.3652 35.21H22.3374C22.2568 33.9585 21.1396 33.0669 19.6411 33.0669C18.0029 33.0669 16.9019 33.9585 16.9019 35.2744C16.9019 36.3755 17.5088 37.0093 18.9106 37.3638L19.9043 37.6216C20.9731 37.8901 21.4565 38.3091 21.4565 38.9697C21.4565 39.7378 20.6885 40.3018 19.6465 40.3018C18.5454 40.3018 17.772 39.7861 17.6538 38.9751H16.6763ZM26.2529 35.9243C27.1714 35.9243 27.7837 36.6011 27.8052 37.627H24.6147C24.6846 36.6011 25.3291 35.9243 26.2529 35.9243ZM27.7783 39.5015C27.5366 40.0117 27.0317 40.2856 26.2852 40.2856C25.3022 40.2856 24.6631 39.5605 24.6147 38.4165V38.3735H28.7773V38.019C28.7773 36.2197 27.8267 35.1079 26.2637 35.1079C24.6738 35.1079 23.6533 36.2896 23.6533 38.1104C23.6533 39.9419 24.6577 41.1021 26.2637 41.1021C27.5312 41.1021 28.4229 40.4951 28.7021 39.5015H27.7783ZM30.6143 33.7114V35.21H29.6797V35.9834H30.6143V39.4961C30.6143 40.6025 31.0923 41.043 32.2847 41.043C32.4673 41.043 32.6445 41.0215 32.8271 40.9893V40.2104C32.6553 40.2266 32.564 40.2319 32.3975 40.2319C31.7959 40.2319 31.5381 39.9419 31.5381 39.2598V35.9834H32.8271V35.21H31.5381V33.7114H30.6143ZM34.6104 33.7114V35.21H33.6758V35.9834H34.6104V39.4961C34.6104 40.6025 35.0884 41.043 36.2808 41.043C36.4634 41.043 36.6406 41.0215 36.8232 40.9893V40.2104C36.6514 40.2266 36.5601 40.2319 36.3936 40.2319C35.792 40.2319 35.5342 39.9419 35.5342 39.2598V35.9834H36.8232V35.21H35.5342V33.7114H34.6104ZM38.2412 41H39.165V35.21H38.2412V41ZM38.7031 34.0337C39.0576 34.0337 39.3477 33.7437 39.3477 33.3892C39.3477 33.0347 39.0576 32.7446 38.7031 32.7446C38.3486 32.7446 38.0586 33.0347 38.0586 33.3892C38.0586 33.7437 38.3486 34.0337 38.7031 34.0337ZM40.9268 41H41.8506V37.5732C41.8506 36.5581 42.4468 35.9404 43.3706 35.9404C44.2944 35.9404 44.7349 36.4346 44.7349 37.4766V41H45.6587V37.251C45.6587 35.876 44.9336 35.1079 43.6338 35.1079C42.7476 35.1079 42.1836 35.4839 41.8936 36.123H41.8076V35.21H40.9268V41ZM49.6924 40.0977C48.6182 40.0977 48.0166 39.2812 48.0166 38.019C48.0166 36.7568 48.6182 35.9404 49.6924 35.9404C50.7612 35.9404 51.4111 36.7568 51.4111 38.019C51.4111 39.2812 50.7666 40.0977 49.6924 40.0977ZM49.7354 43.2236C51.3145 43.2236 52.3135 42.3965 52.3135 41.1021V35.21H51.4326V36.1284H51.3467C51.0137 35.5054 50.2993 35.1079 49.4883 35.1079C48.0005 35.1079 47.0605 36.2842 47.0605 38.019C47.0605 39.7539 47.9897 40.9141 49.4883 40.9141C50.2832 40.9141 50.9385 40.5542 51.3037 39.915H51.3896V41.0537C51.3896 41.9077 50.772 42.418 49.7354 42.418C48.9028 42.418 48.3872 42.1118 48.2852 41.6392H47.3076C47.4473 42.5952 48.3389 43.2236 49.7354 43.2236ZM53.9194 36.7944C53.9194 37.6323 54.4136 38.0996 55.4985 38.3628L56.4922 38.6045C57.1099 38.7549 57.4106 39.0234 57.4106 39.4209C57.4106 39.9526 56.8521 40.3232 56.0732 40.3232C55.332 40.3232 54.8701 40.0117 54.7144 39.5229H53.7637C53.8657 40.4844 54.752 41.1021 56.041 41.1021C57.3569 41.1021 58.3613 40.3877 58.3613 39.3511C58.3613 38.5186 57.835 38.0459 56.7446 37.7827L55.853 37.5679C55.1709 37.4014 54.8486 37.1543 54.8486 36.7568C54.8486 36.2412 55.3857 35.8921 56.0732 35.8921C56.7715 35.8921 57.2227 36.1982 57.3462 36.6602H58.2593C58.1357 35.7095 57.2925 35.1079 56.0786 35.1079C54.8486 35.1079 53.9194 35.833 53.9194 36.7944Z" fill="#716868"/>
</svg>