<svg width="76" height="45" viewBox="0 0 76 45" fill="none"
    xmlns="http://www.w3.org/2000/svg">
    <g clip-path="url(#clip0_461_1860)">
        <path d="M45.4167 25.5C47.0275 25.5 48.3333 24.1941 48.3333 22.5833C48.3333 20.9725 47.0275 19.6666 45.4167 19.6666C43.8058 19.6666 42.5 20.9725 42.5 22.5833C42.5 24.1941 43.8058 25.5 45.4167 25.5Z" stroke="#716868" stroke-linecap="round" stroke-linejoin="round"/>
        <path d="M30.25 25.5C31.8608 25.5 33.1666 24.1941 33.1666 22.5833C33.1666 20.9725 31.8608 19.6666 30.25 19.6666C28.6391 19.6666 27.3333 20.9725 27.3333 22.5833C27.3333 24.1941 28.6391 25.5 30.25 25.5Z" stroke="#716868" stroke-linecap="round" stroke-linejoin="round"/>
        <path d="M42.5 10.3334H47.1667L50.6667 13.8334V19.6667H42.5V10.3334Z" stroke="#716868" stroke-linecap="round" stroke-linejoin="round"/>
        <path d="M42.5 4.5H25V19.6667H42.5V4.5Z" stroke="#716868" stroke-linecap="round" stroke-linejoin="round"/>
    </g>
    <path d="M24.3841 33.0669C22.1927 33.0669 20.8231 34.6299 20.8231 37.1221C20.8231 39.6035 22.1605 41.1826 24.3841 41.1826C26.597 41.1826 27.929 39.5981 27.929 37.1221C27.929 34.6353 26.5862 33.0669 24.3841 33.0669ZM24.3841 33.9585C25.9686 33.9585 26.9354 35.1831 26.9354 37.1221C26.9354 39.0449 25.9739 40.291 24.3841 40.291C22.7728 40.291 21.8167 39.0449 21.8167 37.1221C21.8167 35.1831 22.805 33.9585 24.3841 33.9585ZM29.492 41H30.4158V37.4121C30.4158 36.5957 31.055 36.0049 31.9359 36.0049C32.1185 36.0049 32.4515 36.0371 32.5267 36.0586V35.1348C32.4085 35.1187 32.2151 35.1079 32.0648 35.1079C31.2967 35.1079 30.6307 35.5054 30.4588 36.0693H30.3729V35.21H29.492V41ZM35.6634 41.1021C36.4637 41.1021 37.1512 40.7207 37.5164 40.0762H37.6024V41H38.4832V32.9111H37.5594V36.123H37.4788C37.1512 35.4893 36.4691 35.1079 35.6634 35.1079C34.1917 35.1079 33.2303 36.2896 33.2303 38.105C33.2303 39.9258 34.181 41.1021 35.6634 41.1021ZM35.8782 35.9404C36.9256 35.9404 37.5809 36.7783 37.5809 38.105C37.5809 39.4424 36.931 40.2695 35.8782 40.2695C34.8201 40.2695 34.1863 39.4585 34.1863 38.105C34.1863 36.7568 34.8255 35.9404 35.8782 35.9404ZM42.5867 35.9243C43.5052 35.9243 44.1175 36.6011 44.139 37.627H40.9485C41.0184 36.6011 41.6629 35.9243 42.5867 35.9243ZM44.1121 39.5015C43.8704 40.0117 43.3655 40.2856 42.619 40.2856C41.636 40.2856 40.9969 39.5605 40.9485 38.4165V38.3735H45.1111V38.019C45.1111 36.2197 44.1605 35.1079 42.5975 35.1079C41.0076 35.1079 39.9871 36.2896 39.9871 38.1104C39.9871 39.9419 40.9915 41.1021 42.5975 41.1021C43.8651 41.1021 44.7567 40.4951 45.0359 39.5015H44.1121ZM46.5613 41H47.4852V37.4121C47.4852 36.5957 48.1243 36.0049 49.0052 36.0049C49.1878 36.0049 49.5208 36.0371 49.596 36.0586V35.1348C49.4778 35.1187 49.2845 35.1079 49.1341 35.1079C48.366 35.1079 47.7 35.5054 47.5281 36.0693H47.4422V35.21H46.5613V41ZM50.5091 36.7944C50.5091 37.6323 51.0032 38.0996 52.0882 38.3628L53.0818 38.6045C53.6995 38.7549 54.0003 39.0234 54.0003 39.4209C54.0003 39.9526 53.4417 40.3232 52.6629 40.3232C51.9217 40.3232 51.4598 40.0117 51.304 39.5229H50.3533C50.4554 40.4844 51.3416 41.1021 52.6307 41.1021C53.9466 41.1021 54.951 40.3877 54.951 39.3511C54.951 38.5186 54.4246 38.0459 53.3343 37.7827L52.4427 37.5679C51.7606 37.4014 51.4383 37.1543 51.4383 36.7568C51.4383 36.2412 51.9754 35.8921 52.6629 35.8921C53.3611 35.8921 53.8123 36.1982 53.9359 36.6602H54.8489C54.7254 35.7095 53.8821 35.1079 52.6683 35.1079C51.4383 35.1079 50.5091 35.833 50.5091 36.7944Z" fill="#716868"/>
    <defs>
        <clipPath id="clip0_461_1860">
            <rect width="28" height="28" fill="white" transform="translate(23.8333 1)"/>
        </clipPath>
    </defs>
</svg>
