<svg xmlns="http://www.w3.org/2000/svg" viewBox="0 0 3613.64 454.01">
    <path d="M618.26,230.57c0,48.73,0,97.46,.02,146.19,0,4.34,.07,8.68,.32,13.01,1.6,27.73,13.52,39.89,41.57,42.5,2.33,.22,4.65,.52,6.98,.68,2.76,.19,3,2.06,2.98,4.19-.02,2.1-.24,4.08-2.91,4.34-1.66,.16-3.33,.2-5,.2-55.51,0-111.02,0-166.53,0-1.34,0-2.68-.07-4.01-.05-3.29,.05-4.85-1.41-4.82-4.81,.03-3.14,1.83-3.86,4.45-4.02,2.67-.16,5.33-.45,7.98-.75,24.76-2.73,38.34-17.63,38.39-42.52,.1-48.06,.04-96.13,.04-144.19,0-59.75,.06-119.49-.05-179.24-.03-15.66-4.12-29.76-18.68-38.29-6.99-4.1-15.2-4.45-23.08-5.77-3.65-.61-9.89,.59-8.9-6.42,.8-5.7,5.76-3.29,8.84-3.29,66.21-.14,132.43-.8,198.62,.17,38.49,.56,74.49,10.58,102.87,38.73,34.25,33.98,37.34,96.49,7.75,134.86-18.61,24.13-42.76,39.31-71.67,47.71-10.78,3.13-11.1,3.84-4.84,13.04,31.42,46.18,62.73,92.44,94.38,138.46,17.47,25.39,41.16,41.83,71.94,47.27,2.78,.49,6.14-.3,6.12,4.49-.02,5.42-3.71,4.6-6.92,4.61-39.79,.04-79.59-.07-119.38,.13-6.08,.03-8.63-3.32-11.5-7.77-38.5-59.74-77.19-119.35-115.7-179.07-4.08-6.33-12.74-13.23-10.27-19.32,2.45-6.04,13.24-2.62,20.32-3.48,44.46-5.39,76.56-37.26,81.78-83.51,3.15-27.94,2.39-55.98-8.75-82.61-9.58-22.91-26.09-36.55-51.79-36.83-10.65-.11-21.3-.84-31.97,1.08-13.24,2.39-21.35,10.05-25.39,22.44-2.29,7-3.25,14.22-3.24,21.64,.09,52.07,.05,104.14,.05,156.21Z" fill="#716868"/>
    <path d="M2974.21,234.73c8.87-3.77,18.49-1.47,27.61-3.56,43.68-10.02,68.41-36.15,75.42-81.97,4.02-26.26,2.2-52.48-6.34-77.84-9.67-28.69-27.88-41.7-58.18-42.28-4.68-.09-9.36-.02-14.05-.01-28.81,.04-42.14,13.46-42.13,42.42,.03,104.49,.04,208.98,.11,313.47,0,3.98,.12,8.01,.78,11.92,3.82,22.56,15.36,32.88,37.98,35.43,4.29,.48,12.68-3.01,12.24,5.18-.45,8.35-8.58,3.95-12.92,3.98-52.17,.35-104.34,.23-156.52,.23-2.34,0-4.68,.05-7.02-.03-2.96-.09-6.17,.35-6.51-4.15-.33-4.51,2.64-4.51,5.76-4.84,4.3-.45,8.63-.91,12.85-1.8,21.41-4.54,32.19-17.49,32.21-39.31,.08-109.16,.08-218.33,0-327.49-.02-24.91-12.01-38.08-36.63-41.61-5.15-.74-14.56,2.27-13.61-6.63,.8-7.49,9.43-3.37,14.25-3.39,63.88-.33,127.76-.75,191.63,.02,30.93,.37,60.74,6.72,86.98,24.84,36.44,25.16,50.52,60.17,43.72,102.95-7.37,46.34-37.72,73.88-79.85,89.99-21.31,8.15-21.69,7.81-8.66,26.94,29.77,43.7,59.35,87.54,89.82,130.75,16.86,23.92,39.96,39.52,69.41,44.57,3.15,.54,7.05-.18,6.51,5.17-.54,5.34-4.57,3.95-7.56,3.96-39.46,.09-78.93-.02-118.39,.15-5.37,.02-8.49-2.06-11.3-6.43-41.22-64.28-82.56-128.48-123.97-192.63-1.63-2.52-3.6-4.72-3.65-8Z" fill="#716868"/>
    <path d="M2504.25,117.86c-6.39,15.54-12.73,30.75-18.91,46.02-29.04,71.81-58.11,143.6-86.97,215.48-4.07,10.15-8.29,20.31-8.56,31.66-.23,9.49,4.14,14.66,12.71,17.72,8.01,2.86,16.28,3.34,24.57,4.13,2.93,.28,7.12-1.52,7.21,4.15,.09,5.36-3.67,4.64-6.9,4.64-37.79,.03-75.58,.03-113.37,0-3.22,0-7.01,.72-7.08-4.58-.05-3.9,2.31-4.28,5.22-4.2,36.42,1.03,52.62-22.61,64.91-52,40.26-96.27,80.92-192.38,121.39-288.56,11.6-27.57,23.06-55.19,34.65-82.76,2.03-4.82,3.41-9.89,10.82-9.54,6.81,.32,6.89,5.64,8.45,9.47,50.57,123.66,100.9,247.43,151.58,371.04,5.51,13.44,12.87,26.05,23.24,36.76,9.93,10.25,22.15,14.35,35.79,15.52,3.39,.29,6.91-.34,6.47,4.95-.39,4.66-3.78,3.9-6.63,3.9-57.19,.04-114.37,.05-171.56,0-3.1,0-7.17,1.01-7.34-4.25-.2-6.33,4.66-4.38,7.85-4.47,27.24-.78,34.35-9.69,24.77-34.96-20.86-55.01-42.8-109.61-64.33-164.36-14.11-35.88-28.31-71.73-42.42-107.62-1.08-2.74-1.68-5.68-5.55-8.13Z" fill="#716868"/>
    <path d="M2127.9,453.98c-34.6,.6-77.89-10.17-116.73-35-56.77-36.29-89.13-89.05-98.68-155.28-8.51-59.01,1.47-115.06,34.46-165.28,36.41-55.43,89.74-85.08,154.69-94.8,12.81-1.92,25.86-2.2,38.78-3.45,5.28-.51,7.62,1.46,6.64,6.69-.8,4.25,3.03,10.9-5.51,11.39-48.52,2.75-80.25,31.23-103.67,70.05-32.01,53.05-39.41,111.54-33.76,172.29,2.89,31.09,9.93,61.19,23.41,89.39,17.9,37.44,41.15,70.6,83.8,82.41,42.87,11.87,81.71,1.62,115.49-27.01,23.31-19.76,36.66-46.02,46.89-74.14,.68-1.88,1.18-3.83,1.94-5.68,1.19-2.89,3.23-3.64,6.43-3.13,4,.63,3.75,3.25,3.39,5.86-4.04,29.98-8.14,59.96-12.26,89.93-.68,4.93-4.31,7.12-8.49,8.85-40.12,16.59-81.63,26.63-136.83,26.92Z" fill="#716868"/>
    <path d="M1428.73,205.42c0,59.72-.01,119.45,0,179.17,0,31.09,11.99,44.47,42.69,47.79,1.99,.22,4,.33,5.97,.69,2.89,.53,3.5,2.7,3.41,5.24-.09,2.61-1.81,3.28-4.01,3.33-1.67,.04-3.34,.05-5.01,.05-56.16,0-112.31,0-168.47,0-1,0-2.01,.06-3.01-.02-2.51-.2-5.69,.68-5.95-3.43-.24-3.86,1.87-5.16,5.45-5.49,6.95-.63,13.89-1.19,20.61-3.57,18.35-6.51,25.02-20.71,25.95-38.68,.36-6.99,.06-14.01,.06-21.02,0-110.11-.11-220.21,.2-330.32,.02-8.73-1.97-11.51-11-11.12-19.31,.83-38.81-.97-57.78,3.99-36.11,9.45-52.67,36.79-63.11,69.55-.5,1.58-.82,3.23-1.24,4.84-.87,3.35-2.77,5.13-6.49,4.64-4.48-.6-3.86-3.86-3.65-6.79,1.34-18.91,2.74-37.81,4.14-56.72,.71-9.62,1.7-19.22,2.05-28.85,.19-5.2,2.22-6.58,7.26-6.57,68.19,.14,136.38,.25,204.57-.1,8.02-.04,7.4,3.97,7.39,9.21-.06,61.39-.04,122.79-.04,184.18Z" fill="#716868"/>
    <path d="M3463.78,206.54c0,57.08,0,114.15,.01,171.23,0,4,.06,8.01,.3,12,1.7,27.85,13.45,39.83,41.58,42.5,2.33,.22,4.65,.52,6.98,.68,2.76,.19,3.01,2.05,2.99,4.18-.02,2.1-.23,4.08-2.91,4.35-1.66,.16-3.33,.2-5,.2-56.18,0-112.35,0-168.53,0-1.34,0-2.67-.07-4.01-.05-3.28,.05-4.86-1.4-4.83-4.8,.03-3.13,1.82-3.79,4.44-4.05,4.31-.43,8.64-.83,12.87-1.68,21.78-4.4,33.51-18.52,33.52-40.69,.07-97.13,.03-194.26,.04-291.38,0-20.69-.31-41.39,.17-62.08,.16-7.16-2.11-8.96-9.03-8.85-19.7,.31-39.57-.96-58.85,3.71-31.97,7.74-49.09,30.99-60.09,59.98-1.65,4.35-3.13,8.81-4.23,13.32-.89,3.64-2.15,6.18-6.5,5.99-5.59-.24-4.1-4.29-3.91-7.3,1.42-21.91,2.98-43.8,4.52-65.7,.07-.98,.48-1.94,.57-2.93,.7-7.21-2.12-16.64,2.73-21.09,5.66-5.19,15.33-1.73,23.22-1.76,61.19-.18,122.39,.06,183.58-.29,8.15-.05,10.64,1.72,10.58,10.27-.4,61.41-.21,122.83-.21,184.24Z" fill="#716868"/>
    <path d="M92.61,441.69c-28.09,0-56.19,.07-84.28-.1-3.07-.02-8.13,2.26-8.25-3.99-.11-5.73,4.69-4.73,8.04-5.04,16.99-1.56,32.36-5.8,39.87-23.31,3.06-7.12,4.1-14.71,4.1-22.44,0-105.49,.06-210.98-.05-316.47-.02-18.8-3.83-36.03-23.76-44.26-6.5-2.68-13.47-3.47-20.5-4.12-2.88-.27-8.2,.73-7.74-5.26,.44-5.75,4.95-4.42,8.35-4.43,56.52-.06,113.04-.07,169.56,0,3.37,0,8.06-1.44,8.45,4.27,.45,6.49-5.3,5.15-8.54,5.46-6.37,.59-12.66,1.49-18.61,3.6-16.82,5.96-24.83,19.07-24.84,40.02-.02,102.82-.01,205.64,0,308.46,0,5.68-.18,11.36,.04,17.02,.9,23.77,14.48,38.28,38.2,40.95,2.32,.26,4.65,.49,6.98,.65,3.42,.24,7.06,.23,6.82,5.15-.27,5.54-4.67,3.75-7.54,3.76-28.76,.13-57.52,.08-86.29,.08Z" fill="#716868"/>
    <path d="M1087.58,226.54c0,53.06,0,106.12,0,159.18,0,29.7,12.46,43.55,41.78,46.53,2.33,.24,4.67,.42,6.96,.85,2.91,.55,3.43,2.76,3.31,5.3-.13,2.63-1.92,3.19-4.09,3.24-2.01,.05-4.01,.05-6.02,.05-55.5,0-110.99,0-166.49,0-1.67,0-3.34-.07-5.01-.02-3.18,.1-4.9-.97-4.95-4.56-.06-3.87,2.16-4.07,5.09-4.33,7.95-.7,15.83-1.42,23.43-4.55,13.78-5.67,20.59-16.23,22.75-30.31,.7-4.59,.9-9.3,.9-13.96,.05-103.78,.08-207.57-.02-311.35-.01-13.01-.78-25.9-10.05-36.65-8.05-9.34-18.67-12.25-30.15-13.68-2.96-.37-5.91-.9-8.87-1.23-2.72-.3-3.03-2.13-2.96-4.27,.07-2.21,.92-3.99,3.29-4.28,2.31-.28,4.66-.27,7-.27,55.16-.01,110.33-.01,165.49,0,2.34,0,4.69-.07,7.01,.18,2.89,.3,3.7,2.34,3.71,4.98,0,2.5-1.27,3.48-3.6,3.75-4.29,.51-8.59,1.02-12.84,1.79-24.75,4.47-35.64,17.41-35.66,42.43-.04,53.73-.01,107.45-.01,161.18Z" fill="#716868"/>
    <path d="M1741.74,12.23c28.09,0,56.17-.07,84.26,.11,2.98,.02,7.83-2.45,8.1,4.08,.25,5.94-4.64,4.5-7.63,5.64-1.47,.57-3.32,.1-4.97,.28-24.9,2.72-38.33,16.9-39.5,41.94-.3,6.33-.03,12.68-.03,19.02,0,98.12-.01,196.24,.03,294.35,0,5.66,.06,11.37,.75,16.98,2.9,23.64,15.21,35.3,39.17,37.47,2.66,.24,5.32,.67,7.98,.73,2.86,.06,4.14,1.14,4.2,4.15,.07,3.52-1.54,4.8-4.82,4.68-1.67-.06-3.34,.02-5.01,.02-55.17,0-110.33,0-165.5,0-1.34,0-2.67-.02-4.01-.01-3.23,.02-6-.28-6.01-4.67-.01-3.92,2.54-3.99,5.29-4.29,3.97-.42,7.98-.77,11.89-1.55,21.91-4.39,33.54-18.17,33.66-40.44,.18-33.04,.06-66.08,.06-99.12,0-75.09,.04-150.18-.06-225.27-.02-16.02-4.19-30.39-19.36-38.85-7.08-3.95-15.28-4.19-23.16-5.5-3.32-.55-8.98,.33-8.22-6.12,.72-6.06,5.65-3.49,8.66-3.52,28.08-.21,56.17-.12,84.25-.12Z" fill="#716868"/>
    <path d="M363.13,441.69c-19.05,0-38.12-.34-57.15,.2-6.25,.18-9.66-2.26-12.86-6.94-37.12-54.23-74.31-108.42-111.55-162.56-9.93-14.43-20.02-28.76-30.21-43-3.3-4.61-3.98-7.82,.58-12.71,13.57-14.54,26.35-29.81,39.42-44.82,3.36-3.87,5.89-5.55,9.9,.05,40.69,56.99,81.52,113.88,122.56,170.62,16.87,23.32,32.44,47.65,54.04,67.31,13.21,12.02,27.95,20,45.6,22.82,2.98,.48,8.17-1.84,7.85,4.61-.33,6.92-5.72,4.27-9.02,4.32-19.72,.24-39.44,.12-59.16,.12Z" fill="#716868"/>
    <path d="M311.9,4.4c2.74-.27,3.08,1.63,4.04,2.88,11.66,15.15,23.27,30.34,35.11,45.34,1.99,2.52,1.21,3.7-.42,5.77-11.58,14.79-23.19,29.57-34.37,44.66-3.05,4.13-3.82,3.7-6.7-.14-10.69-14.23-21.96-28.03-32.85-42.11-2.28-2.95-4.36-5.53-.71-10.04,11.57-14.34,22.29-29.36,33.39-44.08,.76-1.01,1.9-1.73,2.51-2.28Z" fill="#72c293"/>
    <path d="M2277.73,74.29c.25,3.11-1.36,4.42-2.58,6-9.86,12.86-19.68,25.75-29.46,38.66-2.24,2.95-3.66,5.39-7.22,.64-10.33-13.76-21.2-27.11-31.9-40.59-2.3-2.9-1.59-5.27,.54-8.02,10.15-13.05,20.28-26.12,30.09-39.42,3.14-4.27,5.73-4.12,8.57-.39,10.22,13.41,20.32,26.92,30.43,40.42,.77,1.03,1.28,2.24,1.53,2.69Z" fill="#72c293"/>
    <path d="M3613.64,61.27c-.93,3.96-3.82,6.35-6.05,9.24-8.07,10.47-16.1,20.98-23.78,31.74-3.05,4.27-4.63,5.57-8.37,.36-9.25-12.89-19.06-25.38-28.87-37.86-1.91-2.43-2.65-3.67-.38-6.55,10.22-12.99,20.02-26.29,30.05-39.43,1.67-2.19,3.38-4.21,6.11-.52,9.84,13.28,19.95,26.37,29.89,39.58,.76,1.01,1,2.42,1.4,3.43Z" fill="#72c293"/>
    <path d="M1544.67,105.84c-2.55-.05-2.99-2.14-4.17-3.65-8.72-11.18-17.45-22.37-26.49-33.3-4.39-5.31-4.28-9.81,0-15.15,8.66-10.79,17.1-21.77,25.25-32.95,3.66-5.01,6.43-4.49,9.81-.08,9.22,12.04,18.57,23.97,27.65,36.12,1.15,1.54,3.22,3.58,1.23,6.2-10.36,13.64-20.66,27.34-31.02,40.99-.58,.76-1.52,1.25-2.26,1.83Z" fill="#72c293"/>
    <path d="M2505.21,360.59c-10.18-13.34-20.05-26.6-30.33-39.53-3.48-4.38-4.03-7.75-.39-12.29,9.11-11.34,17.92-22.92,26.71-34.5,3.16-4.17,5.64-3.43,8.45,.29,8.58,11.34,17.2,22.63,25.91,33.87,3.32,4.28,3.31,8.26,0,12.54-10.1,13.07-20.1,26.22-30.35,39.62Z" fill="#72c293"/>
</svg>
