<svg xmlns="http://www.w3.org/2000/svg" viewBox="0 0 1024 1024">
    <g>
        <path d="M1023.02,507c0,143.1,0,286.21,0,429.31,0,4.93,.02,9.86,.08,14.79,.03,2.45-.15,4.92,.67,7.33,.29,.85,.24,1.84,.16,2.75-.71,8.15-2.31,16.12-5.98,23.58-1.44,2.92-3,5.81-4.81,8.53-5.99,9-14.09,15.92-23.65,21.39-4.31,2.47-8.74,4.57-13.56,6.03-5.12,1.55-10.31,2.43-15.67,2.43-34.45,0-68.91,.02-103.36,.02-185.86,.01-371.72,.02-557.57,.04-2.74,0-5.47-.17-8.19,.59-1.2,.34-2.57,.16-3.86,.16-73.6,.02-147.2,.1-220.8-.03-12.62-.02-24.58-3.06-35.18-9.97-8.39-5.47-15.1-12.43-20.28-20.76-2.88-4.64-5.76-9.28-7.54-14.42-2.18-6.3-3.42-12.75-3.42-19.43,.02-72.4-.02-144.79-.02-217.19,0-225.05-.01-450.1-.01-675.15,0-1.54,.05-3.08,0-4.62-.33-8.98,2.31-17.31,6.29-25.31,1.38-2.78,2.84-5.55,4.6-8.11C19.27,16.74,30.58,7.85,44.76,2.36,48.65,.85,52.7,0,57,0,357.54,.04,658.08,.04,958.63,.03c5.66,0,11.27,.51,16.76,1.79,8.94,2.09,16.75,6.29,23.79,11.88,1.49,1.18,3.11,2.23,4.44,3.55,2.22,2.22,4.33,4.55,6.36,6.94,6.45,7.58,10.22,16.39,11.84,25.9,.85,4.96,1.3,10.03,1.29,15.13-.08,85.95-.07,171.91-.07,257.86,0,61.31,0,122.62,0,183.92h-.02Z" fill="#c1dbc7"/>
        <path d="M650.21,691.32c-12.36,0-24.72-.06-37.07,.03-5.32,.04-9.78-1.64-13.3-5.66-5.86-6.68-12.35-12.76-18.35-19.29-3.75-4.09-7.75-7.95-11.37-12.14-6-6.94-12.84-13.06-19.01-19.82-10.66-11.7-22.25-22.49-33.12-33.97-6.01-6.35-12.22-12.5-18.11-18.95-3.46-3.79-7.07-7.44-10.5-11.25-7.05-7.84-14.12-15.64-21.5-23.17-1.74-1.78-3.28-3.75-4.99-5.57-2.5-2.65-5.75-3.99-9.25-4.27-5.93-.47-11.89-.61-17.85-.79-2.63-.08-5.24,.04-7.87,.45-2.58,.4-5.28,.36-7.89,.14-3.96-.34-6.81-1.71-6.79-7.17,.03-8.19,.06-16.38,.06-24.56,0-9.16,.09-18.32-.1-27.48-.11-5.2,1.89-8.03,8.05-8.07,2.35-.02,4.72-.18,7.03,.55,.64,.2,1.38,.15,2.07,.15,5.69,.04,11.39,.22,17.08,.04,4.46-.14,8.82-1.15,12.71-3.46,2.98-1.77,5.84-3.77,8.22-6.32,2.83-3.04,5.5-6.23,8.22-9.37,2.45-2.83,4.75-5.79,7.32-8.5,8.02-8.45,16.34-16.63,24.17-25.25,6.72-7.41,14.08-14.18,20.8-21.57,5.33-5.85,11.07-11.3,16.32-17.2,4.34-4.88,9.05-9.39,13.47-14.18,4.6-4.99,9.13-10.05,13.69-15.08,.09-.1,.18-.21,.28-.31,4.45-4.76,8.9-9.52,13.35-14.28,4.64-4.96,9.29-9.92,13.95-14.86,1.05-1.11,2.14-2.19,3.28-3.19,2.16-1.9,4.73-2.82,7.58-3.01,.55-.04,1.11-.01,1.67-.01,25.55,0,51.1,0,76.65-.03,1.96,0,3.88,.03,5.6,1.18,.99,.66,1.13,1.44,.27,2.41-.74,.83-1.54,1.6-2.32,2.39-12.33,12.4-24.68,24.79-37,37.21-1.27,1.28-2.39,2.69-3.59,4.03-.37,.41-.72,.85-1.12,1.23-8.9,8.35-17.02,17.47-25.77,25.97-3.88,3.77-7.5,7.78-10.73,12.14-.66,.88-1.5,1.63-2.29,2.42-30.51,30.54-61.03,61.08-91.54,91.62-.69,.69-1.43,1.33-2.03,2.09-3.45,4.31-3.16,7.42-.58,11.36,.75,1.14,1.82,2.09,2.8,3.07,12.76,12.76,25.53,25.51,38.29,38.27,9.82,9.82,19.77,19.5,29.39,29.5,14.62,15.2,29.74,29.92,44.27,45.2,9.66,10.16,19.84,19.8,29.36,30.08,4.91,5.29,10.07,10.33,14.85,15.73,3.41,3.85,7.04,7.46,10.53,11.22,2.26,2.44,4.47,4.93,6.67,7.41,.86,.97,.59,1.51-.72,2.06-1.99,.84-4.06,.83-6.14,.83-12.36,0-24.72,0-37.07,0v-.02Z" fill="#74c394"/>
        <path d="M323.12,503.38c0-58.44,0-116.88,0-175.32,0-2.08-.03-4.17,.07-6.25,.18-3.64,1.76-5.36,5.41-6.28,2.18-.55,4.31-.86,6.56-.27,1.19,.31,2.47,.29,3.72,.3,9.31,.03,18.61,.05,27.92,.03,2.49,0,4.97,.03,7.45-.54,2.63-.61,5.25,.13,7.77,.88,1.95,.58,3.32,1.89,3.88,3.99,.32,1.21,.68,2.39,.66,3.66-.02,1.8,.01,3.61,.01,5.41,0,116.6,0,233.2,0,349.8,0,1.67-.06,3.33-.02,5,.04,1.43-.46,2.73-.91,4.04-.52,1.51-1.59,2.74-3.08,3.19-2.23,.68-4.55,1.5-6.93,.85-2.06-.56-4.12-.52-6.2-.52-12.08,0-24.17,0-36.25,.01-1.67,0-3.34,.02-5-.08-2.61-.15-4.09-1.35-4.73-3.87-.23-.93-.25-1.92-.27-2.89-.04-2.36-.03-4.72-.03-7.08,0-58.02,0-116.05,0-174.07h-.05Z" fill="#74c394"/>
    </g>
</svg>
